<?xml version="1.0" encoding="UTF-8"?>
<svg id="Layer_1" data-name="Layer 1" xmlns="http://www.w3.org/2000/svg" viewBox="0 0 336.26 547.12">
  <defs>
    <style>
      .cls-1 {
        fill: none;
        stroke: #ffb72f;
        stroke-miterlimit: 10;
        stroke-width: 25px;
      }
    </style>
  </defs>
  <path class="cls-1" d="M97.3,331.5V41.25c0-15.88,15.81-28.75,35.31-28.75h66.06c19.5,0,35.31,12.87,35.31,28.75v290.25"/>
  <path class="cls-1" d="M233.96,315.17l.36,18.01c.07,3.38,1.71,6.56,4.48,8.51,3.09,2.17,6.8,3.37,10.67,3.37h50.16c21.03,0,31.96,25.07,17.63,40.48l-131.5,141.41c-9.52,10.24-25.74,10.24-35.27,0L18.99,385.53c-14.32-15.4-3.4-40.48,17.63-40.48l47.75.09c6.97.01,12.66-5.59,12.74-12.56l.18-15.08"/>
</svg>