<?xml version="1.0" encoding="UTF-8"?>
<svg id="Layer_1" data-name="Layer 1" xmlns="http://www.w3.org/2000/svg" viewBox="0 0 583.49 525.68">
  <defs>
    <style>
      .cls-1 {
        stroke: #05ce26;
      }

      .cls-1, .cls-2 {
        fill: none;
        stroke-miterlimit: 10;
        stroke-width: 25px;
      }

      .cls-2 {
        stroke: #af63ff;
      }
    </style>
  </defs>
  <path class="cls-2" d="M39.44,150.34h109.67v210.25H39.44c-14.87,0-26.94-12.07-26.94-26.94v-156.36c0-14.87,12.07-26.94,26.94-26.94Z"/>
  <path class="cls-2" d="M317.22,510.01s-168.1-134.65-168.1-151.14v-204.5c0-16.49,168.1-138.99,168.1-138.99,14.69-11.34,14.69,13.37,14.69,29.87v434.9c0,40.85-8.4,33.98-14.69,29.87Z"/>
  <path class="cls-1" d="M462.56,264.29l-82.67-82.67c-4.63-4.63-4.63-12.14,0-16.77l3.21-3.21c4.63-4.63,12.14-4.63,16.77,0l82.67,82.67"/>
  <path class="cls-1" d="M484.84,246.64l82.67,82.67c4.63,4.63,4.63,12.14,0,16.77l-3.21,3.21c-4.63,4.63-12.14,4.63-16.77,0l-82.67-82.67"/>
  <path class="cls-1" d="M482.54,266.61l-82.67,82.67c-4.63,4.63-12.14,4.63-16.77,0l-3.21-3.21c-4.63-4.63-4.63-12.14,0-16.77l82.67-82.67"/>
  <path class="cls-1" d="M464.88,244.32l82.67-82.67c4.63-4.63,12.14-4.63,16.77,0l3.21,3.21c4.63,4.63,4.63,12.14,0,16.77l-82.67,82.67"/>
</svg>